<svg xmlns="http://www.w3.org/2000/svg" fill="none" viewBox="0 0 150 50">
  <g clip-path="url(#a)">
    <path fill="#fff" d="M74.997 1.08C75.58 1 76.34.96 77.28.97c.97.01 1.867.065 2.547.16.614.067.922.333.922.793.328 8.848 1.038 15.45 2.208 19.312.195.684.406 1.03.633 1.038.226.008.437-.323.631-.994 1.26-3.884 2.075-10.513 2.323-19.233 0-.46.234-.704.849-.729.452-.031 1.26-.018 2.423.051 1.162.069 1.954.15 2.373.233.613.097.92.377.921.837v.122a134.988 134.988 0 0 1-2.144 15.037c-.98 4.873-2.047 8.97-3.21 11.947-.162.426-.502.724-1.02.781-.583.054-1.654.02-3.21-.068-1.361-.078-2.61-.119-3.162-.213s-.908-.358-1.07-.795c-1.17-3.058-2.243-7.224-3.216-12.151-.974-4.927-1.614-10.122-2.002-15.084v-.203c0-.407.307-.652.922-.733"/>
    <path stroke="#000" stroke-miterlimit="10" stroke-width=".8" d="M74.997 1.08C75.58 1 76.34.96 77.28.97c.97.01 1.867.065 2.547.16.614.067.922.333.922.793.328 8.848 1.038 15.45 2.208 19.312.195.684.406 1.03.633 1.038.226.008.437-.323.631-.994 1.26-3.884 2.075-10.513 2.323-19.233 0-.46.234-.704.849-.729.452-.031 1.26-.018 2.423.051 1.162.069 1.954.15 2.373.233.613.097.92.377.921.837v.122a134.988 134.988 0 0 1-2.144 15.037c-.98 4.873-2.047 8.97-3.21 11.947-.162.426-.502.724-1.02.781-.583.054-1.654.02-3.21-.068-1.361-.078-2.61-.119-3.162-.213s-.908-.358-1.07-.795c-1.17-3.058-2.243-7.224-3.216-12.151-.974-4.927-1.614-10.122-2.002-15.084v-.203c0-.407.307-.652.922-.733Z" clip-rule="evenodd"/>
    <path fill="#fff" d="M66.994 10.377c-1.238 1.794-3.18 2.143-3.43 2.23-.665.18-.82-.11-.804-.393 0-2.048.101-4.946.116-5.156.066-.868.812-.875.812-.875 1.908-.063 2.266.187 2.462.26 1.102.5 1.38 1.252 1.4 2.134.01.987-.422 1.6-.556 1.8Zm8.963 18.626-.133-1.033s-1.339-9.502-6.045-11.818c0 0-.851-.49-1.68-.74-.132-.048-.468-.165-.483-.463 0-.234.187-.336.46-.469.274-.133 3.67-1.588 4.545-5.627.047-.313 1.067-5.41-4.41-7.154-.218-.062-1.847-.772-10.125-.02 0 0-1.067-.052-1.161 1.216l-.094 1.268s-.609 12.985-.026 25.673c.042.584.037 1.247.703 1.242l2.452-.23 2.316-.198c.125-.01.698-.058.698-.793l-.02-.694s-.24-3.631-.26-9.537c-.002-.438.088-1.247.593-1.622.234-.173.713-.282 1.566.156.24.125 1.271.94 1.677 2.003 0 0 1.505 3.22 1.865 9.058.015.313-.016.947.812.915l.828-.023 5.078-.14s.976.063.844-.97"/>
    <path stroke="#000" stroke-miterlimit="10" stroke-width=".8" d="M66.994 10.377c-1.238 1.794-3.18 2.143-3.43 2.23-.665.18-.82-.11-.804-.393 0-2.048.101-4.946.116-5.156.066-.868.812-.875.812-.875 1.908-.063 2.266.187 2.462.26 1.102.5 1.38 1.252 1.4 2.134.01.987-.422 1.6-.556 1.8Zm8.963 18.626-.133-1.033s-1.339-9.502-6.045-11.818c0 0-.851-.49-1.68-.74-.132-.048-.468-.165-.483-.463 0-.234.187-.336.46-.469.274-.133 3.67-1.588 4.545-5.627.047-.313 1.067-5.41-4.41-7.154-.218-.062-1.847-.772-10.125-.02 0 0-1.067-.052-1.161 1.216l-.094 1.268s-.609 12.985-.026 25.673c.042.584.037 1.247.703 1.242l2.452-.23 2.316-.198c.125-.01.698-.058.698-.793l-.02-.694s-.24-3.631-.26-9.537c-.002-.438.088-1.247.593-1.622.234-.173.713-.282 1.566.156.24.125 1.271.94 1.677 2.003 0 0 1.505 3.22 1.865 9.058.015.313-.016.947.812.915l.828-.023 5.078-.14s.976.063.844-.97Z" clip-rule="evenodd"/>
    <path fill="#fff" d="M102.878 20.051c-.313.17-.803.22-1.472.15l-.815-.083c-.669-.067-1.172-.236-1.507-.508-.294-.195-.44-.436-.441-.723l-.001-.179c.2-2.294.673-4.587 1.416-6.874.206-.624.498-.916.873-.878.376.039.67.39.881 1.057.845 2.617 1.356 5.01 1.532 7.176l.001.214c.002.263-.154.479-.467.648Zm7.458 13.003-.135-1.062s-.74-6.734-1.256-9.837c-.517-3.102-1.247-9.381-3.875-18.409-.19-.47-.286-.765-2.055-1.046-.287-.063-2.443-.406-4.7-.39-.573.03-1.095.046-1.331.577-.22.531-1.831 4.858-3.448 13.687-.315 1.5-1.36 8.045-1.787 12.793-.044.542-.283 1.352.741 1.562 1.124.104 4.644.589 4.644.589s1.123.27.944-1.375c-.113-.854-.59-2.865-.41-4.177.135-.812.517-2.478 3.572-2.103.836.153 4.177.863 3.005 5.109-.202.742-.399 1.485-.591 2.23 0 0-.421 1.445.905 1.67l1.247.249 3.805.776s.893.188.725-.843"/>
    <path stroke="#000" stroke-miterlimit="10" stroke-width=".8" d="M102.878 20.051c-.313.17-.803.22-1.472.15l-.815-.083c-.669-.067-1.172-.236-1.507-.508-.294-.195-.44-.436-.441-.723l-.001-.179c.2-2.294.673-4.587 1.416-6.874.206-.624.498-.916.873-.878.376.039.67.39.881 1.057.845 2.617 1.356 5.01 1.532 7.176l.001.214c.002.263-.154.479-.467.648Zm7.458 13.003-.135-1.062s-.74-6.734-1.256-9.837c-.517-3.102-1.247-9.381-3.875-18.409-.19-.47-.286-.765-2.055-1.046-.287-.063-2.443-.406-4.7-.39-.573.03-1.095.046-1.331.577-.22.531-1.831 4.858-3.448 13.687-.315 1.5-1.36 8.045-1.787 12.793-.044.542-.283 1.352.741 1.562 1.124.104 4.644.589 4.644.589s1.123.27.944-1.375c-.113-.854-.59-2.865-.41-4.177.135-.812.517-2.478 3.572-2.103.836.153 4.177.863 3.005 5.109-.202.742-.399 1.485-.591 2.23 0 0-.421 1.445.905 1.67l1.247.249 3.805.776s.893.188.725-.843Z" clip-rule="evenodd"/>
    <path fill="#fff" d="M141.427 30.738c-.016.254-.199.403-.541.446-.337.044-.842-.09-1.508-.39l-.789-.357c-.63-.284-1.092-.598-1.395-.948-.265-.267-.396-.529-.397-.79v-.163c.187-2.12.657-4.343 1.457-6.719.237-.692.565-.992.982-.884.424.11.743.59.95 1.43.806 3.206 1.216 5.928 1.255 8.166l-.014.21Zm7.419 16.149c-.313-9.556-3.593-26.237-3.593-26.237l-1.405-6.27-.297-1.164c-.281-1.178-.968-1.461-1.171-1.555-2.39-1.226-5.592-2.075-6.201-2.216-.812-.158-.859.251-1.109.88-3.498 10.435-5.008 26.78-5.008 26.78s-.18 1.844-.18 2.012c.01.723.666 1.121.885 1.278.396.283 1.832.922 1.832.922s.979.43 2.229.933c1.543.736 1.166-1.572 1.166-1.572s-.062-.586-.187-1.488c-.459-3.143.231-3.81.534-4.029.976-.7 2.255-.419 3.165-.003 1.146.522 1.96 1.434 2.301 1.907 1.325 1.837.544 3.774.021 6.037-.187.739-.161 1-.156 1.242.057.87 1.114 1.461 1.447 1.692.396.23 3.544 1.798 4.373 2.25.839.457.854.424 1.083.382.378-.18.308-.855.271-1.782"/>
    <path stroke="#000" stroke-miterlimit="10" stroke-width=".8" d="M141.427 30.738c-.016.254-.199.403-.541.446-.337.044-.842-.09-1.508-.39l-.789-.357c-.63-.284-1.092-.598-1.395-.948-.265-.267-.396-.529-.397-.79v-.163c.187-2.12.657-4.343 1.457-6.719.237-.692.565-.992.982-.884.424.11.743.59.95 1.43.806 3.206 1.216 5.928 1.255 8.166l-.014.21Zm7.419 16.149c-.313-9.556-3.593-26.237-3.593-26.237l-1.405-6.27-.297-1.164c-.281-1.178-.968-1.461-1.171-1.555-2.39-1.226-5.592-2.075-6.201-2.216-.812-.158-.859.251-1.109.88-3.498 10.435-5.008 26.78-5.008 26.78s-.18 1.844-.18 2.012c.01.723.666 1.121.885 1.278.396.283 1.832.922 1.832.922s.979.43 2.229.933c1.543.736 1.166-1.572 1.166-1.572s-.062-.586-.187-1.488c-.459-3.143.231-3.81.534-4.029.976-.7 2.255-.419 3.165-.003 1.146.522 1.96 1.434 2.301 1.907 1.325 1.837.544 3.774.021 6.037-.187.739-.161 1-.156 1.242.057.87 1.114 1.461 1.447 1.692.396.23 3.544 1.798 4.373 2.25.839.457.854.424 1.083.382.378-.18.308-.855.271-1.782Z" clip-rule="evenodd"/>
    <path fill="#fff" stroke="#000" stroke-miterlimit="10" stroke-width=".8" d="M113.331 4.23s-1.166-.334-1.333 1.13c-.083.587-.736 20.844.056 27.876.041.46.13 1.283.895 1.548.958.252 4.061 1.11 4.623 1.278.291.084.749.273.645-.523-.062-.816-.673-7.44-.59-10.496.042-.984.125-2.01.396-2.052.28-.052.71.035 1.561 2.575l.73 2.323 2.426 8.057s.583 1.863 1.811 2.303c1.229.439 2.426.858 2.426.858s1.044.488 1.323-.691c.094-.377.229-1.151.291-2.784.042-1.632.146-10.443.146-10.443s.031-13.342-.312-16.356c-.045-.448-.037-1.254-1.239-1.747-.229-.084-2.145-.69-3.728-.837-.218.01-1.322-.136-1.062 1.454.239 1.56.926 6.247.926 9.868-.02.544.063 3.286-.582 3.348-.542.043-1-.439-2.229-4.018-.25-.858-1.27-4.227-1.79-6.362a247.08 247.08 0 0 0-1.162-4.53s-.219-1.077-1.708-1.391c-.729-.115-2.52-.387-2.52-.387Z"/>
    <path fill="#fff" d="M53.81 22.82c-.266-.05-.782.162-1.14.966l-.407.79s-1.14 2.35-3.967 2.97c-.375.096-3.912.936-3.905-3.17l.003-1.482s-.206-3.055 2.184-4.064c.328-.125 1.817-.678 3.145.094.203.1 1.096.729 1.707.43.19-.099.434-.221.468-.772.018-.282.03-3.927 0-4.326-.03-.44-.28-.445-.468-.496-.604-.126-1.166.355-1.374.473-1.328.717-3.098.7-3.478.638-2.34-.38-2.196-2.503-2.196-2.503s-.014-.144.01-1.203c.061-2.857 3.088-2.823 3.878-2.846 2.812-.08 3.986 1.725 3.986 1.725s.023.035.391.543c.36.532.897.607 1.162.538.64-.17.578-.796.578-.796l-.03-7.175s.116-1.206-1.375-.997c-1.492.17-5.061.425-12.683 1.623 0 0-1.155.084-1.203 1.438-.015.347-.369 8.153-.41 14.154-.042 6.002.083 10.993.29 14.178.043.419.084.911 1.011.715l.916-.206s7.443-1.707 12.627-2.442c.218-.037.78.032.828-1.07l.007-.094c.092-.87.07-6.467.07-6.467s.014-1.038-.626-1.166"/>
    <path stroke="#000" stroke-miterlimit="10" stroke-width=".8" d="M53.81 22.82c-.266-.05-.782.162-1.14.966l-.407.79s-1.14 2.35-3.967 2.97c-.375.096-3.912.936-3.905-3.17l.003-1.482s-.206-3.055 2.184-4.064c.328-.125 1.817-.678 3.145.094.203.1 1.096.729 1.707.43.19-.099.434-.221.468-.772.018-.282.03-3.927 0-4.326-.03-.44-.28-.445-.468-.496-.604-.126-1.166.355-1.374.473-1.328.717-3.098.7-3.478.638-2.34-.38-2.196-2.503-2.196-2.503s-.014-.144.01-1.203c.061-2.857 3.088-2.823 3.878-2.846 2.812-.08 3.986 1.725 3.986 1.725s.023.035.391.543c.36.532.897.607 1.162.538.64-.17.578-.796.578-.796l-.03-7.175s.116-1.206-1.375-.997c-1.492.17-5.061.425-12.683 1.623 0 0-1.155.084-1.203 1.438-.015.347-.369 8.153-.41 14.154-.042 6.002.083 10.993.29 14.178.043.419.084.911 1.011.715l.916-.206s7.443-1.707 12.627-2.442c.218-.037.78.032.828-1.07l.007-.094c.092-.87.07-6.467.07-6.467s.014-1.038-.626-1.166Z" clip-rule="evenodd"/>
    <path fill="#fff" d="M35.92 26.014c-.266-.021-.781.261-1.138 1.14l-.404.87s-1.135 2.447-3.958 3.558c-.375.144-3.76 1.752-3.885-2.79-.017-.63-.001-1.526-.001-1.526s-.126-3.327 2.145-4.55c.325-.175 1.94-.816 3.27-.17.203.082.98.625 1.583.262.187-.129.437-.209.466-.858.014-.295.013-4.148-.011-4.56-.026-.424-.282-.43-.47-.461-.604-.06-1.212.5-1.415.624-1.325.902-3.105 1.048-3.433 1.044-2.243-.025-2.172-2.754-2.172-2.754l-.003-1.125c-.008-3.272 3.314-3.518 3.77-3.577 2.92-.379 4.076 1.775 4.076 1.775s.281.457.369.557c.36.51.914.476 1.18.373.639-.252.575-.897.575-.897l-.05-7.461s.113-1.268-1.377-.875c-1.49.352-4.861.615-12.624 2.607 0 0-1.207.398-1.25 1.813-.015.362-.347 8.93-.372 15.179-.026 6.249.139 11.615.355 14.925.043.433.086.943 1.01.628l.914-.324s6.326-2.351 12.575-4.095c.218-.063.78-.059.824-1.211l.001-.04c.09-.917.077-6.941.077-6.941s.013-1.083-.628-1.14"/>
    <path stroke="#000" stroke-miterlimit="10" stroke-width=".8" d="M35.92 26.014c-.266-.021-.781.261-1.138 1.14l-.404.87s-1.135 2.447-3.958 3.558c-.375.144-3.76 1.752-3.885-2.79-.017-.63-.001-1.526-.001-1.526s-.126-3.327 2.145-4.55c.325-.175 1.94-.816 3.27-.17.203.082.98.625 1.583.262.187-.129.437-.209.466-.858.014-.295.013-4.148-.011-4.56-.026-.424-.282-.43-.47-.461-.604-.06-1.212.5-1.415.624-1.325.902-3.105 1.048-3.433 1.044-2.243-.025-2.172-2.754-2.172-2.754l-.003-1.125c-.008-3.272 3.314-3.518 3.77-3.577 2.92-.379 4.076 1.775 4.076 1.775s.281.457.369.557c.36.51.914.476 1.18.373.639-.252.575-.897.575-.897l-.05-7.461s.113-1.268-1.377-.875c-1.49.352-4.861.615-12.624 2.607 0 0-1.207.398-1.25 1.813-.015.362-.347 8.93-.372 15.179-.026 6.249.139 11.615.355 14.925.043.433.086.943 1.01.628l.914-.324s6.326-2.351 12.575-4.095c.218-.063.78-.059.824-1.211l.001-.04c.09-.917.077-6.941.077-6.941s.013-1.083-.628-1.14Z" clip-rule="evenodd"/>
    <path fill="#fff" d="M12.015 37.185c-.611 1-1.064 1.507-2.159 2.125-.792.448-1.395.714-1.675.804-.774.34-1.205-.057-1.262-.956-.122-1.934-.081-5.453.077-7.647.015-.632.23-1.042.642-1.225.17-.076.311-.106.626-.14 3.41-.338 4.646 1.085 4.654 3.632.005 1.282-.296 2.415-.903 3.407Zm-5.08-18.504c.054-.732.377-1.218.971-1.45.188-.104.517-.247 1.113-.475 2.164-.824 2.996-.102 3.004 2.02.005 1.09-.351 2.201-1.065 3.34-.713 1.137-1.562 2.02-3.033 2.927a2.37 2.37 0 0 1-.536.265c-.386.126-.584-.073-.597-.6-.032-1.398-.025-4.179.143-6.027ZM19.259 32.5s-.355-5.033-5.28-5.707c-.732-.127-1.566-.063-1.754-.464-.188-.421.689-1.105.866-1.253.177-.147 4.498-3.675 5.354-8.708.146-.737 1.106-6.218-3.747-6.566-.282.016-1.847-.205-6.528 1.47a57.008 57.008 0 0 0-5.379 2.321c-.78.38-1.474 1.257-1.507 2.13C.86 27.118.86 35.093 1.32 48.213c.025.718 1.013.769 1.66.369 0 0 4.792-2.606 6.45-3.427 1.217-.604 5.906-3.009 7.471-4.946.46-.548 2.797-3.16 2.359-7.708"/>
    <path stroke="#000" stroke-miterlimit="10" stroke-width=".8" d="M12.015 37.185c-.611 1-1.064 1.507-2.159 2.125-.792.448-1.395.714-1.675.804-.774.34-1.205-.057-1.262-.956-.122-1.934-.081-5.453.077-7.647.015-.632.23-1.042.642-1.225.17-.076.311-.106.626-.14 3.41-.338 4.646 1.085 4.654 3.632.005 1.282-.296 2.415-.903 3.407Zm-5.08-18.504c.054-.732.377-1.218.971-1.45.188-.104.517-.247 1.113-.475 2.164-.824 2.996-.102 3.004 2.02.005 1.09-.351 2.201-1.065 3.34-.713 1.137-1.562 2.02-3.033 2.927a2.37 2.37 0 0 1-.536.265c-.386.126-.584-.073-.597-.6-.032-1.398-.025-4.179.143-6.027ZM19.259 32.5s-.355-5.033-5.28-5.707c-.732-.127-1.566-.063-1.754-.464-.188-.421.689-1.105.866-1.253.177-.147 4.498-3.675 5.354-8.708.146-.737 1.106-6.218-3.747-6.566-.282.016-1.847-.205-6.528 1.47a57.008 57.008 0 0 0-5.379 2.321c-.78.38-1.474 1.257-1.507 2.13C.86 27.118.86 35.093 1.32 48.213c.025.718 1.013.769 1.66.369 0 0 4.792-2.606 6.45-3.427 1.217-.604 5.906-3.009 7.471-4.946.46-.548 2.797-3.16 2.359-7.708Z" clip-rule="evenodd"/>
  </g>
  <defs>
    <clipPath id="a">
      <path fill="#fff" d="M0 0h150v49.914H0z"/>
    </clipPath>
  </defs>
</svg>
